# xmcd CD database file
#
# Track frame offsets:
#	150
#	20230
#	46252
#
# Disc length: 883 seconds
#
# Revision: 0
# Processed by: cddbd v1.5PL3 Copyright (c) Steve Scherf et al.
# Submitted via: CDex 1.50beta9
#
DISCID=20037103
DTITLE=ワイルドスタイル - 誰よりも君だけに
DYEAR=1996
DGENRE=J-POP
TTITLE0=誰よりも君だけに
TTITLE1=１０月の雨
TTITLE2=誰よりも君だけに　カラオケ
EXTD=YEAR: 1996
EXTT0=
EXTT1=
EXTT2=
PLAYORDER=
